<?xml version="1.0" standalone="no"?>
<!DOCTYPE svg PUBLIC "-//W3C//DTD SVG 20010904//EN"
 "http://www.w3.org/TR/2001/REC-SVG-20010904/DTD/svg10.dtd">
<svg version="1.0" xmlns="http://www.w3.org/2000/svg"
 width="1661.000000pt" height="1661.000000pt" viewBox="0 0 1661.000000 1661.000000"
 preserveAspectRatio="xMidYMid meet">
<metadata>
Created by potrace 1.14, written by Peter Selinger 2001-2017
</metadata>
<g transform="translate(0.000000,1661.000000) scale(0.100000,-0.100000)"
fill="#000000" stroke="none">
<path d="M4215 15131 c-87 -21 -190 -106 -254 -208 -31 -50 -152 -289 -213
-422 -161 -351 -274 -620 -413 -986 -55 -144 -250 -718 -265 -780 -4 -16 -35
-124 -68 -240 -116 -399 -174 -650 -176 -750 -1 -81 2 -95 26 -136 29 -49 76
-95 136 -133 34 -21 66 -37 222 -116 171 -87 549 -236 810 -319 216 -69 537
-152 680 -176 19 -3 49 -8 65 -12 17 -3 39 -7 50 -9 11 -1 36 -5 55 -8 113
-20 144 -26 147 -30 2 -2 -6 -25 -18 -52 -30 -70 -42 -98 -44 -104 -1 -3 -6
-16 -12 -30 -6 -14 -176 -419 -378 -900 -202 -481 -373 -888 -380 -905 -8 -16
-37 -86 -65 -155 -29 -69 -58 -138 -65 -155 -7 -16 -29 -70 -50 -120 -40 -97
-54 -130 -78 -185 -8 -19 -68 -161 -132 -315 -64 -154 -122 -293 -129 -310 -8
-16 -37 -86 -65 -155 -29 -69 -56 -134 -61 -145 -5 -11 -29 -67 -53 -125 -153
-365 -331 -789 -342 -815 -7 -16 -43 -102 -80 -190 -36 -88 -84 -200 -105
-250 -21 -49 -66 -157 -100 -240 -34 -82 -68 -163 -75 -180 -8 -16 -30 -70
-50 -120 -21 -49 -45 -108 -55 -131 -10 -22 -53 -123 -95 -225 -42 -101 -82
-197 -90 -214 -17 -40 -343 -819 -354 -848 -5 -13 -18 -43 -29 -67 -12 -25
-60 -139 -108 -255 -47 -115 -95 -230 -106 -255 -11 -25 -25 -56 -30 -70 -6
-14 -16 -38 -24 -55 -7 -16 -30 -70 -50 -120 -20 -49 -42 -103 -49 -120 -8
-16 -30 -70 -51 -120 -20 -49 -45 -110 -56 -135 -11 -25 -24 -55 -29 -67 -5
-13 -13 -33 -19 -45 -64 -150 -204 -490 -212 -513 -69 -220 72 -354 413 -395
112 -14 162 -19 239 -25 36 -3 85 -7 110 -10 48 -5 228 -15 370 -21 234 -9
812 -4 1110 11 74 3 169 8 210 10 41 2 120 6 175 9 55 4 138 9 185 11 82 5
156 12 230 20 255 30 429 86 578 187 123 84 234 247 302 445 11 34 23 70 25
80 3 10 12 45 20 78 9 33 24 103 35 155 10 52 22 106 25 120 3 14 9 50 15 80
67 381 156 496 443 575 104 28 122 32 177 41 19 3 51 9 70 14 19 5 62 12 95
16 33 3 62 8 65 9 3 2 34 6 70 10 36 3 83 8 105 11 89 11 265 23 445 30 129 5
1055 4 1280 -1 197 -5 561 -14 755 -20 88 -3 237 -7 330 -10 655 -19 681 -22
760 -72 106 -68 238 -263 440 -648 71 -136 106 -201 128 -238 142 -234 151
-250 231 -397 174 -321 275 -429 465 -495 111 -39 196 -55 381 -73 158 -15
1629 -5 2035 13 346 16 737 56 870 90 226 57 324 151 325 311 0 92 -20 149
-122 343 -190 361 -338 677 -538 1151 -45 107 -88 209 -95 225 -7 17 -37 86
-65 155 -29 69 -58 139 -65 155 -44 99 -75 174 -75 179 0 3 -11 29 -24 58 -13
29 -77 179 -141 333 -64 154 -134 321 -155 370 -21 50 -81 196 -135 325 -53
129 -103 249 -110 265 -8 17 -37 86 -65 155 -28 69 -57 139 -64 155 -8 17 -64
149 -126 295 -110 261 -128 302 -176 408 -13 29 -24 55 -24 57 0 3 -16 39 -35
81 -19 41 -35 77 -35 79 0 2 -13 32 -29 67 -16 35 -183 403 -371 818 -188 415
-352 778 -365 805 -13 28 -68 149 -123 270 -55 121 -114 252 -132 290 -18 39
-42 93 -55 120 -36 82 -65 145 -106 233 -22 46 -39 85 -39 87 0 1 -18 41 -39
87 -75 162 -111 239 -111 243 0 2 -17 41 -39 87 -21 45 -71 155 -111 243 -40
88 -88 193 -106 233 -19 41 -34 75 -34 77 0 1 -20 46 -45 98 -95 202 -123 272
-111 278 6 3 40 12 76 18 226 42 770 200 945 276 17 7 75 31 130 53 224 90
423 183 547 254 75 44 147 112 169 162 35 80 30 148 -27 374 -14 57 -27 111
-29 120 -4 22 -67 255 -94 352 -12 41 -23 82 -26 90 -24 93 -195 629 -215 675
-5 11 -18 47 -29 80 -27 84 -67 191 -151 405 -68 175 -80 204 -114 283 -8 17
-27 61 -42 97 -94 229 -320 706 -388 818 -45 75 -130 158 -195 190 -47 23 -69
27 -136 27 -112 -1 -168 -34 -214 -127 -41 -86 -43 -140 -25 -713 17 -531 10
-754 -28 -890 -7 -22 -12 -42 -13 -45 -16 -72 -67 -163 -135 -243 -77 -90
-162 -143 -292 -182 -79 -24 -564 -125 -599 -125 -4 0 -40 82 -79 183 -39 100
-80 201 -91 224 -10 24 -19 46 -19 51 0 6 -49 133 -95 247 -5 11 -9 22 -10 25
-3 10 -18 46 -47 115 -108 257 -215 386 -368 443 -67 24 -108 31 -220 37 -47
3 -107 7 -135 9 -27 3 -93 8 -145 11 -52 4 -111 8 -130 10 -19 2 -80 7 -135
10 -55 4 -125 8 -155 10 -331 22 -1190 22 -1402 0 -24 -2 -86 -7 -138 -10
-330 -21 -445 -57 -560 -174 -78 -80 -115 -151 -260 -501 -109 -263 -124 -299
-145 -345 -7 -16 -30 -70 -50 -120 -20 -49 -45 -108 -54 -130 -10 -22 -26 -62
-37 -88 -18 -46 -20 -48 -54 -42 -19 3 -55 7 -80 10 -25 3 -52 7 -60 10 -8 2
-31 7 -50 10 -33 5 -211 40 -360 70 -36 7 -78 15 -95 18 -55 9 -159 38 -226
63 -252 94 -391 318 -415 664 -8 126 -8 309 0 555 24 677 22 741 -21 832 -50
108 -160 155 -288 124z"/>
</g>
</svg>
